<svg width="135" xmlns="http://www.w3.org/2000/svg" height="50">

<path id="mic" fill="#1F2937" transform="translate(150, 4) scale(2)" d="m-14.63349,-1.7593c-2.2,0 -4,2.10759 -4,4.68354l0,9.36709c0,2.57595 1.8,4.68354 4,4.68354c2.2,0 4,-2.10759 4,-4.68354l0,-9.36709c0,-2.57595 -1.8,-4.68354 -4,-4.68354zm-2,14.05063l0,-9.36709c0,-1.28797 0.9,-2.34177 2,-2.34177c1.1,0 2,1.0538 2,2.34177l0,9.36709c0,1.28797 -0.9,2.34177 -2,2.34177c-1.1,0 -2,-1.0538 -2,-2.34177zm2,9.36709c1.7,0 3,-1.52215 3,-3.51266l-6,0c0,1.99051 1.3,3.51266 3,3.51266z" class="mic"/>

<text id="text" transform="matrix(1.01254, 0, 0, 1.02644, -0.00603263, -0.00986551)" fill="#1F2937" font-weight="bold" font-size="36px" font-family="'Segoe UI', Tahoma, Geneva, Verdana, sans-serif" y="39.25316" x="0.48101" class="text">Crescn</text>
</svg>