<svg xmlns="http://www.w3.org/2000/svg" viewBox="0 0 24 24" width="36" height="36" fill="white">
    <path
        d="M12 .3C5.37.3 0 5.67 0 12.3c0 5.302 3.438 9.8 8.205 11.385.6.111.82-.258.82-.577 0-.285-.01-1.04-.015-2.04-3.338.725-4.042-1.61-4.042-1.61-.546-1.385-1.334-1.755-1.334-1.755-1.088-.745.083-.729.083-.729 1.204.084 1.838 1.236 1.838 1.236 1.07 1.838 2.809 1.305 3.495.998.109-.776.419-1.305.763-1.605-2.665-.302-5.466-1.332-5.466-5.93 0-1.312.465-2.38 1.236-3.22-.124-.303-.536-1.524.116-3.176 0 0 1.005-.322 3.3 1.23.96-.267 1.98-.4 3-.405 1.02.005 2.04.138 3 .405 2.28-1.552 3.285-1.23 3.285-1.23.655 1.652.24 2.873.12 3.176.765.84 1.23 1.908 1.23 3.22 0 4.61-2.805 5.625-5.475 5.92.42.36.81 1.096.81 2.22 0 1.606-.015 2.896-.015 3.286 0 .315.21.69.825.57A11.965 11.965 0 0 0 24 12.3c0-6.63-5.37-12-12-12" />
</svg>