<svg viewBox="0 0 135 50" xmlns="http://www.w3.org/2000/svg" >
    <path id="mic" fill="white" transform="translate(150, 4) scale(2)"
        d="m-14.63349,-1.7593c-2.2,0 -4,2.10759 -4,4.68354l0,9.36709c0,2.57595 1.8,4.68354 4,4.68354c2.2,0 4,-2.10759 4,-4.68354l0,-9.36709c0,-2.57595 -1.8,-4.68354 -4,-4.68354zm-2,14.05063l0,-9.36709c0,-1.28797 0.9,-2.34177 2,-2.34177c1.1,0 2,1.0538 2,2.34177l0,9.36709c0,1.28797 -0.9,2.34177 -2,2.34177c-1.1,0 -2,-1.0538 -2,-2.34177zm2,9.36709c1.7,0 3,-1.52215 3,-3.51266l-6,0c0,1.99051 1.3,3.51266 3,3.51266z"
        class="mic" />
    <path
        d="M 20.852 38.382 Q 18.169 39.68 13.845 39.68 Q 8.206 39.68 4.976 36.365 Q 1.746 33.05 1.746 27.53 Q 1.746 21.651 5.377 17.993 Q 9.009 14.336 14.802 14.336 Q 18.391 14.336 20.852 15.242 L 20.852 20.557 Q 18.391 19.087 15.247 19.087 Q 11.794 19.087 9.675 21.258 Q 7.556 23.428 7.556 27.137 Q 7.556 30.691 9.556 32.802 Q 11.555 34.912 14.939 34.912 Q 18.169 34.912 20.852 33.34 Z M 36.01 26.624 Q 35.036 26.094 33.737 26.094 Q 31.977 26.094 30.986 27.384 Q 29.995 28.675 29.995 30.896 L 29.995 39.253 L 24.594 39.253 L 24.594 21.753 L 29.995 21.753 L 29.995 25 L 30.063 25 Q 31.345 21.446 34.677 21.446 Q 35.532 21.446 36.01 21.651 Z M 54.107 32.041 L 42.691 32.041 Q 42.964 35.852 47.493 35.852 Q 50.381 35.852 52.569 34.485 L 52.569 38.382 Q 50.142 39.68 46.263 39.68 Q 42.024 39.68 39.683 37.331 Q 37.342 34.981 37.342 30.777 Q 37.342 26.419 39.871 23.872 Q 42.4 21.326 46.092 21.326 Q 49.92 21.326 52.013 23.599 Q 54.107 25.872 54.107 29.768 Z M 49.099 28.726 Q 49.099 24.966 46.057 24.966 Q 44.759 24.966 43.81 26.043 Q 42.862 27.119 42.657 28.726 Z M 56.176 38.792 L 56.176 34.417 Q 57.509 35.22 58.833 35.613 Q 60.158 36.006 61.337 36.006 Q 62.772 36.006 63.601 35.613 Q 64.43 35.22 64.43 34.417 Q 64.43 33.904 64.054 33.562 Q 63.678 33.22 63.088 32.964 Q 62.499 32.708 61.798 32.503 Q 61.097 32.298 60.448 32.041 Q 59.406 31.648 58.611 31.195 Q 57.816 30.742 57.278 30.144 Q 56.74 29.546 56.458 28.76 Q 56.176 27.974 56.176 26.897 Q 56.176 25.428 56.816 24.368 Q 57.457 23.308 58.525 22.633 Q 59.594 21.958 60.969 21.642 Q 62.345 21.326 63.832 21.326 Q 64.994 21.326 66.19 21.505 Q 67.387 21.685 68.549 22.027 L 68.549 26.197 Q 67.523 25.598 66.353 25.299 Q 65.182 25 64.054 25 Q 63.524 25 63.054 25.094 Q 62.584 25.188 62.225 25.368 Q 61.866 25.547 61.661 25.829 Q 61.456 26.111 61.456 26.47 Q 61.456 26.949 61.764 27.29 Q 62.072 27.632 62.567 27.88 Q 63.063 28.128 63.669 28.324 Q 64.276 28.521 64.874 28.726 Q 65.951 29.102 66.823 29.546 Q 67.694 29.991 68.318 30.589 Q 68.942 31.187 69.275 31.99 Q 69.608 32.793 69.608 33.904 Q 69.608 35.459 68.933 36.562 Q 68.258 37.664 67.139 38.356 Q 66.019 39.048 64.558 39.364 Q 63.097 39.68 61.525 39.68 Q 58.637 39.68 56.176 38.792 Z M 85.98 38.621 Q 84.151 39.68 80.699 39.68 Q 76.666 39.68 74.171 37.237 Q 71.676 34.793 71.676 30.93 Q 71.676 26.47 74.35 23.898 Q 77.025 21.326 81.502 21.326 Q 84.596 21.326 85.98 22.146 L 85.98 26.726 Q 84.288 25.462 82.203 25.462 Q 79.879 25.462 78.52 26.82 Q 77.162 28.179 77.162 30.572 Q 77.162 32.896 78.46 34.22 Q 79.759 35.545 82.032 35.545 Q 84.049 35.545 85.98 34.28 Z M 106.418 39.253 L 101.034 39.253 L 101.034 29.529 Q 101.034 25.462 98.129 25.462 Q 96.728 25.462 95.822 26.538 Q 94.916 27.615 94.916 29.273 L 94.916 39.253 L 89.516 39.253 L 89.516 21.753 L 94.916 21.753 L 94.916 24.522 L 94.985 24.522 Q 96.916 21.326 100.607 21.326 Q 106.418 21.326 106.418 28.538 Z"
        style="fill: rgb(255, 255, 255); white-space: pre;"></path>
</svg>